# xmcd
#
# Track frame offsets: 
#        150
#        11352
#        23529
#        46033
#        60005
#        82871
#        95554
#        113566
#        125325
#        141663
#
# Disc length: 2145 seconds
#
# Revision: 0
# Processed by: cddbd v1.5.2PL0 Copyright (c) Steve Scherf et al.
# Submitted via: ExactAudioCopy v0.99pb5
#
DISCID=69085f0a
DTITLE=Parrett, Aaron - Left of the Mason Dixon Line
DYEAR=2001
DGENRE=Country
TTITLE0=Never Close the Door
TTITLE1=Looking
TTITLE2=Cold as Georgia Clay
TTITLE3=Next Window
TTITLE4=Ehlo Kyuurhi
TTITLE5=The Devil Wears Red Shoes
TTITLE6=Ring on Her Finger
TTITLE7=Together Forever
TTITLE8=I Poured Out the Bottle
TTITLE9=Stumbo Lost Wages
EXTD=
EXTT0=
EXTT1=
EXTT2=
EXTT3=
EXTT4=
EXTT5=
EXTT6=
EXTT7=
EXTT8=
EXTT9=
PLAYORDER=
